# xmcd
#
# Track frame offsets:
#	150
#	18716
#	36922
#	58732
#	78022
#	88874
#	111998
#	131994
#	144821
#	164885
#	182853
#	198648
#
# Disc length: 2863 seconds
# Revision: 0
# Processed by: cddbd v1.5.2PL0 Copyright (c) Steve Scherf et al.
# Submitted via: dBpowerAMP V12.0
#
DISCID=b20b2d0c
DTITLE=Various Artist - Blues Explosion 3
DYEAR=2012
DGENRE=Blues
TTITLE0=Dallas Frasca - All My Love
TTITLE1=Mason Rack Band - Purple And Blue
TTITLE2=John Meyer's Blues Express - Sun's Goin' Down
TTITLE3=Tom Richardson Project - One Heart
TTITLE4=Buddy Knox - Buddy's Got The Blues Again
TTITLE5=Marisa Quigley - Does He Want Me
TTITLE6=Shaun Kirk - Drug Got A Hold Onto You
TTITLE7=Bridie King - Nat Dee Special
TTITLE8=Penny And The Mystics - Wake Up
TTITLE9=Claude Hay - Get Me Some
TTITLE10=Ashleigh Mannix - The Girls Gone Wild
TTITLE11=Blue Shaddy - Road Under My Wheels
EXTD=
EXTT0=
EXTT1=
EXTT2=
EXTT3=
EXTT4=
EXTT5=
EXTT6=
EXTT7=
EXTT8=
EXTT9=
EXTT10=
EXTT11=
PLAYORDER=
